<svg width="100%" height="100%" viewBox="0 0 16 16" version="1.1" xmlns="http://www.w3.org/2000/svg" xmlns:xlink="http://www.w3.org/1999/xlink" xml:space="preserve" xmlns:serif="http://www.serif.com/" style="fill-rule:evenodd;clip-rule:evenodd;stroke-linejoin:round;stroke-miterlimit:2;">
    <rect x="4" y="3" width="10" height="12" style="fill:white;fill-rule:nonzero;"/>
    <path d="M4,3L4,15L14,15L14,3L4,3ZM5,4L13,4L13,14L5,14L5,4Z" style="fill:rgb(102,102,102);fill-rule:nonzero;"/>
    <rect x="5" y="4" width="8" height="1" style="fill:rgb(153,153,153);fill-rule:nonzero;"/>
    <path d="M2,1L3,1L3,2L2,2L2,1ZM2,3L3,3L3,4L2,4L2,3ZM2,5L3,5L3,6L2,6L2,5ZM2,7L3,7L3,8L2,8L2,7ZM2,9L3,9L3,10L2,10L2,9ZM2,11L3,11L3,12L2,12L2,11ZM4,1L5,1L5,2L4,2L4,1ZM6,1L7,1L7,2L6,2L6,1ZM8,1L9,1L9,2L8,2L8,1ZM10,1L11,1L11,2L10,2L10,1Z" style="fill:rgb(185,185,185);fill-rule:nonzero;"/>
    <g transform="matrix(0.157308,0,0,0.157308,3.97855,8.00349)">
        <g transform="matrix(1,0,0,1,0,-25)">
            <path d="M32,43.25C33.925,43.249 35.811,42.702 37.438,41.673L40.314,44.549C37.971,46.241 35.104,47.25 32,47.25C24.143,47.25 17.75,40.857 17.75,33C17.75,32.662 17.777,32.332 17.801,32L13.429,32C13.155,32 12.929,31.774 12.929,31.5C12.929,31.367 12.982,31.24 13.076,31.146L19.647,24.575C19.841,24.381 20.16,24.381 20.354,24.575L26.925,31.146C27.019,31.24 27.072,31.367 27.072,31.5C27.072,31.774 26.846,32 26.571,32L21.823,32C21.789,32.331 21.75,32.66 21.75,33C21.75,38.652 26.348,43.25 32,43.25Z" style="fill:rgb(0,151,167);"/>
        </g>
        <g transform="matrix(1,0,0,1,0,-25)">
            <path d="M50.571,32C50.845,32 51.071,32.226 51.071,32.5C51.071,32.633 51.018,32.76 50.924,32.854L44.353,39.425C44.159,39.619 43.84,39.619 43.646,39.425L37.075,32.854C36.981,32.76 36.928,32.633 36.928,32.5C36.928,32.226 37.154,32 37.429,32L42.199,32C41.695,26.816 37.315,22.75 32,22.75C30.575,22.75 29.166,23.05 27.864,23.629L24.899,20.664C26.992,19.454 29.413,18.75 32,18.75C39.52,18.75 45.682,24.609 46.199,32L50.571,32Z"/>
        </g>
    </g>
</svg>
