<?xml version="1.0" encoding="UTF-8" standalone="no"?>
<!DOCTYPE svg PUBLIC "-//W3C//DTD SVG 1.1//EN" "http://www.w3.org/Graphics/SVG/1.1/DTD/svg11.dtd">
<svg width="100%" height="100%" viewBox="0 0 2000 2000" version="1.1" xmlns="http://www.w3.org/2000/svg" xmlns:xlink="http://www.w3.org/1999/xlink" xml:space="preserve" xmlns:serif="http://www.serif.com/" style="fill-rule:evenodd;clip-rule:evenodd;stroke-linejoin:round;stroke-miterlimit:2;">
    <g transform="matrix(0.99658,0,0,1.00045,-1.87968,-2.62941)">
        <rect x="1.886" y="2.628" width="2006.86" height="1999.09" style="fill:rgb(207,106,135);"/>
    </g>
    <g transform="matrix(2.34175e-16,3.82436,-3.82436,2.34175e-16,1855.67,355.809)">
        <path d="M272.473,178.455C271.045,177.184 268.977,176.752 267.161,177.354L260.147,179.672C244.093,157.628 219.28,145.012 191.885,145.012C164.735,145.012 139.072,158.171 123.237,180.214C122.376,181.414 122.039,182.935 122.313,184.386C122.588,185.84 123.458,187.133 124.697,187.934L137.9,196.474C138.781,197.045 139.8,197.346 140.846,197.346C142.564,197.346 144.198,196.521 145.215,195.138C156.254,180.156 173.265,171.563 191.885,171.563C207.364,171.563 222.22,177.761 233.01,188.645L228.786,190.041C226.952,190.647 225.569,192.2 225.178,194.091C224.785,195.984 225.439,197.957 226.881,199.243L257.051,226.127C258.045,227.014 259.328,227.502 260.66,227.502C261.244,227.502 261.818,227.409 262.361,227.23C264.197,226.624 265.58,225.072 265.971,223.178L274.172,183.605C274.566,181.715 273.914,179.741 272.473,178.455Z" style="fill:white;fill-rule:nonzero;"/>
    </g>
    <g transform="matrix(2.34175e-16,3.82436,-3.82436,2.34175e-16,1855.67,355.809)">
        <path d="M267.492,259.553L254.287,251.01C253.406,250.442 252.389,250.139 251.344,250.139C249.625,250.139 247.99,250.965 246.973,252.348C235.932,267.33 218.922,275.924 200.303,275.924C184.824,275.924 169.97,269.726 159.179,258.842L163.402,257.446C165.236,256.839 166.619,255.286 167.011,253.393C167.403,251.501 166.75,249.53 165.308,248.244L135.137,221.36C133.708,220.087 131.608,219.664 129.826,220.257C127.991,220.862 126.608,222.414 126.215,224.309L118.013,263.88C117.621,265.772 118.274,267.744 119.716,269.03C121.143,270.301 123.211,270.733 125.029,270.132L132.042,267.815C148.094,289.859 172.909,302.475 200.303,302.475C227.453,302.475 253.116,289.315 268.951,267.273C269.812,266.074 270.148,264.552 269.875,263.1C269.603,261.647 268.73,260.354 267.492,259.553Z" style="fill:white;fill-rule:nonzero;"/>
    </g>
    <g transform="matrix(3.82436,0,0,3.82436,250.064,250.064)">
        <path d="M368.621,17.953L23.568,17.953C-0.222,17.953 0,17.732 0,41.522L0,350.668C0,373.939 0.297,374.236 23.568,374.236L368.621,374.236C391.06,374.236 392.189,373.107 392.189,350.668L392.189,41.523C392.189,17.679 392.465,17.953 368.621,17.953ZM297.561,57.53C297.561,52.724 301.457,48.828 306.262,48.828L314.965,48.828C319.773,48.828 323.668,52.724 323.668,57.53L323.668,67.393C323.668,72.199 319.772,76.095 314.965,76.095L306.262,76.095C301.457,76.095 297.561,72.199 297.561,67.393L297.561,57.53ZM257.094,57.53C257.094,52.724 260.992,48.828 265.797,48.828L274.498,48.828C279.305,48.828 283.201,52.724 283.201,57.53L283.201,67.393C283.201,72.199 279.305,76.095 274.498,76.095L265.797,76.095C260.992,76.095 257.094,72.199 257.094,67.393L257.094,57.53ZM363.906,345.953L28.282,345.953L28.282,102.237L363.904,102.237L363.904,345.953L363.906,345.953ZM364.133,67.393C364.133,72.199 360.237,76.095 355.432,76.095L346.729,76.095C341.922,76.095 338.027,72.199 338.027,67.393L338.027,57.53C338.027,52.724 341.923,48.828 346.729,48.828L355.432,48.828C360.238,48.828 364.133,52.724 364.133,57.53L364.133,67.393Z" style="fill:white;fill-rule:nonzero;"/>
    </g>
</svg>
