<?xml version="1.0" encoding="UTF-8" standalone="no"?>
<!DOCTYPE svg PUBLIC "-//W3C//DTD SVG 1.1//EN" "http://www.w3.org/Graphics/SVG/1.1/DTD/svg11.dtd">
<svg width="100%" height="100%" viewBox="0 0 16 16" version="1.1" xmlns="http://www.w3.org/2000/svg" xmlns:xlink="http://www.w3.org/1999/xlink" xml:space="preserve" xmlns:serif="http://www.serif.com/" style="fill-rule:evenodd;clip-rule:evenodd;stroke-linejoin:round;stroke-miterlimit:2;">
    <g>
        <path d="M1,1L1,15L15,15L15,1L1,1ZM2,2L14,2L14,14L2,14L2,2Z" style="fill:rgb(153,153,153);fill-rule:nonzero;"/>
        <rect x="5" y="10" width="8" height="1" style="fill:rgb(185,185,185);fill-rule:nonzero;"/>
        <rect x="3" y="10" width="1" height="1" style="fill:rgb(0,188,212);fill-rule:nonzero;"/>
        <rect x="5" y="12" width="8" height="1" style="fill:rgb(185,185,185);fill-rule:nonzero;"/>
        <rect x="5" y="7" width="6" height="1" style="fill:rgb(0,188,212);fill-rule:nonzero;"/>
        <path d="M5,4L6,4L6,8L5,8L5,4ZM10,4L11,4L11,8L10,8L10,4Z" style="fill:rgb(0,188,212);fill-rule:nonzero;"/>
        <path d="M9,4L11,4L11,5L9,5L9,4ZM7,4.5L9,3L9,6L7,4.5Z" style="fill:rgb(0,188,212);fill-rule:nonzero;"/>
        <rect x="3" y="12" width="1" height="1" style="fill:rgb(0,188,212);fill-rule:nonzero;"/>
    </g>
</svg>
